<mxfile host="app.diagrams.net" modified="2021-11-28T09:26:12.100Z" agent="5.0 (Windows NT 10.0; Win64; x64) AppleWebKit/537.36 (KHTML, like Gecko) Chrome/96.0.4664.45 Safari/537.36" etag="jrhZ88AxMecv76grfgcC" version="15.8.6" type="github">
  <diagram id="C5RBs43oDa-KdzZeNtuy" name="Page-1">
    <mxGraphModel dx="1422" dy="839" grid="1" gridSize="10" guides="1" tooltips="1" connect="1" arrows="1" fold="1" page="1" pageScale="1" pageWidth="827" pageHeight="1169" math="0" shadow="0">
      <root>
        <mxCell id="WIyWlLk6GJQsqaUBKTNV-0" />
        <mxCell id="WIyWlLk6GJQsqaUBKTNV-1" parent="WIyWlLk6GJQsqaUBKTNV-0" />
        <mxCell id="duWj8fCB1leXklvgqpvD-4" style="edgeStyle=orthogonalEdgeStyle;rounded=0;orthogonalLoop=1;jettySize=auto;html=1;exitX=0;exitY=0.5;exitDx=0;exitDy=0;entryX=1;entryY=0.5;entryDx=0;entryDy=0;" edge="1" parent="WIyWlLk6GJQsqaUBKTNV-1" source="duWj8fCB1leXklvgqpvD-0" target="duWj8fCB1leXklvgqpvD-1">
          <mxGeometry relative="1" as="geometry" />
        </mxCell>
        <mxCell id="duWj8fCB1leXklvgqpvD-0" value="&lt;p&gt;&lt;font style=&quot;font-size: 18px&quot; color=&quot;#ff0000&quot;&gt;chase-api&lt;/font&gt;&lt;/p&gt;&lt;font style=&quot;font-size: 18px&quot;&gt;spi&lt;/font&gt;" style="rounded=1;whiteSpace=wrap;html=1;" vertex="1" parent="WIyWlLk6GJQsqaUBKTNV-1">
          <mxGeometry x="430" y="260" width="120" height="60" as="geometry" />
        </mxCell>
        <mxCell id="duWj8fCB1leXklvgqpvD-3" style="edgeStyle=orthogonalEdgeStyle;rounded=0;orthogonalLoop=1;jettySize=auto;html=1;exitX=0.5;exitY=0;exitDx=0;exitDy=0;entryX=0.5;entryY=1;entryDx=0;entryDy=0;" edge="1" parent="WIyWlLk6GJQsqaUBKTNV-1" source="duWj8fCB1leXklvgqpvD-1" target="duWj8fCB1leXklvgqpvD-2">
          <mxGeometry relative="1" as="geometry" />
        </mxCell>
        <mxCell id="duWj8fCB1leXklvgqpvD-1" value="&lt;font style=&quot;font-size: 18px&quot;&gt;lake-api&lt;/font&gt;" style="rounded=1;whiteSpace=wrap;html=1;" vertex="1" parent="WIyWlLk6GJQsqaUBKTNV-1">
          <mxGeometry x="220" y="260" width="120" height="60" as="geometry" />
        </mxCell>
        <mxCell id="duWj8fCB1leXklvgqpvD-2" value="&lt;font style=&quot;font-size: 18px&quot;&gt;前端&lt;/font&gt;" style="rounded=0;whiteSpace=wrap;html=1;" vertex="1" parent="WIyWlLk6GJQsqaUBKTNV-1">
          <mxGeometry x="220" y="140" width="120" height="60" as="geometry" />
        </mxCell>
        <mxCell id="duWj8fCB1leXklvgqpvD-10" style="edgeStyle=orthogonalEdgeStyle;rounded=0;orthogonalLoop=1;jettySize=auto;html=1;exitX=0.07;exitY=0.4;exitDx=0;exitDy=0;exitPerimeter=0;entryX=1;entryY=0.25;entryDx=0;entryDy=0;fontSize=14;fontColor=#FF0000;" edge="1" parent="WIyWlLk6GJQsqaUBKTNV-1" source="duWj8fCB1leXklvgqpvD-5" target="duWj8fCB1leXklvgqpvD-0">
          <mxGeometry relative="1" as="geometry" />
        </mxCell>
        <mxCell id="duWj8fCB1leXklvgqpvD-5" value="&lt;font style=&quot;font-size: 14px&quot;&gt;下游实现1&lt;/font&gt;" style="ellipse;shape=cloud;whiteSpace=wrap;html=1;" vertex="1" parent="WIyWlLk6GJQsqaUBKTNV-1">
          <mxGeometry x="660" y="160" width="120" height="80" as="geometry" />
        </mxCell>
        <mxCell id="duWj8fCB1leXklvgqpvD-11" style="edgeStyle=orthogonalEdgeStyle;rounded=0;orthogonalLoop=1;jettySize=auto;html=1;exitX=0.07;exitY=0.4;exitDx=0;exitDy=0;exitPerimeter=0;entryX=1;entryY=0.5;entryDx=0;entryDy=0;fontSize=14;fontColor=#FF0000;" edge="1" parent="WIyWlLk6GJQsqaUBKTNV-1" source="duWj8fCB1leXklvgqpvD-6" target="duWj8fCB1leXklvgqpvD-0">
          <mxGeometry relative="1" as="geometry" />
        </mxCell>
        <mxCell id="duWj8fCB1leXklvgqpvD-6" value="&lt;font style=&quot;font-size: 14px&quot;&gt;下游实现2&lt;/font&gt;" style="ellipse;shape=cloud;whiteSpace=wrap;html=1;" vertex="1" parent="WIyWlLk6GJQsqaUBKTNV-1">
          <mxGeometry x="660" y="260" width="120" height="80" as="geometry" />
        </mxCell>
        <mxCell id="duWj8fCB1leXklvgqpvD-9" value="。&lt;br&gt;。&lt;br&gt;。" style="text;html=1;strokeColor=none;fillColor=none;align=center;verticalAlign=middle;whiteSpace=wrap;rounded=0;" vertex="1" parent="WIyWlLk6GJQsqaUBKTNV-1">
          <mxGeometry x="690" y="370" width="60" height="30" as="geometry" />
        </mxCell>
      </root>
    </mxGraphModel>
  </diagram>
</mxfile>
